<?xml version="1.0" encoding="UTF-8"?>
<svg version="1.1" xmlns="http://www.w3.org/2000/svg" width="344" height="325">
<path d="M0 0 C113.52 0 227.04 0 344 0 C344 107.25 344 214.5 344 325 C230.48 325 116.96 325 0 325 C0 217.75 0 110.5 0 0 Z " fill="#EBECEC" transform="translate(0,0)"/>
<path d="M0 0 C0.71913071 -0.00807175 1.43826141 -0.01614349 2.17918396 -0.02445984 C3.69959138 -0.03824779 5.22002906 -0.04899344 6.74047852 -0.05688477 C8.27345044 -0.06834775 9.80638426 -0.08870864 11.33911133 -0.1184082 C20.13815674 -0.28851611 27.65264661 -0.03780027 35.96533203 3.27050781 C38.57451711 4.26827066 41.06073219 4.82333895 43.80859375 5.30078125 C48.02696786 6.06898356 51.60178088 7.40134122 55.49609375 9.23828125 C56.80644959 9.80575819 58.11892757 10.36836279 59.43359375 10.92578125 C60.44421875 11.35890625 61.45484375 11.79203125 62.49609375 12.23828125 C62.49609375 12.89828125 62.49609375 13.55828125 62.49609375 14.23828125 C63.3778125 14.50382812 64.25953125 14.769375 65.16796875 15.04296875 C74.34868088 18.34026677 82.09097236 25.05252805 89.49609375 31.23828125 C90.45322266 32.00978516 90.45322266 32.00978516 91.4296875 32.796875 C108.4170407 46.75752829 121.0848083 69.06630801 126.49609375 90.23828125 C126.75430908 91.24181641 127.01252441 92.24535156 127.27856445 93.27929688 C129.3581863 102.04936632 130.00424912 110.36574439 129.93359375 119.36328125 C129.9308847 120.03437927 129.92817566 120.70547729 129.92538452 121.39691162 C129.71333369 156.21761928 115.32100292 186.01208422 90.83349609 210.32568359 C85.18972516 215.73859398 79.14093324 220.09873705 72.49609375 224.23828125 C71.55636719 224.85058594 70.61664063 225.46289062 69.6484375 226.09375 C43.2838608 242.52174621 10.85180467 246.39248704 -19.26416016 239.77734375 C-50.84549808 232.17634155 -77.74030522 212.56259172 -95.1796875 185.1484375 C-98.86810626 179.10802745 -101.72502883 172.73474535 -104.50390625 166.23828125 C-104.89191406 165.40296875 -105.27992187 164.56765625 -105.6796875 163.70703125 C-117.51093384 137.02962637 -115.61559296 105.03965798 -105.79907227 78.17700195 C-100.11293609 63.70384291 -91.91131944 50.78647329 -81.50390625 39.23828125 C-80.70855469 38.34882812 -79.91320312 37.459375 -79.09375 36.54296875 C-60.92630577 17.30685133 -37.95610099 7.04536178 -12.50390625 1.23828125 C-11.73812256 1.05563721 -10.97233887 0.87299316 -10.18334961 0.68481445 C-6.78719596 0.11884042 -3.43370467 0.03728669 0 0 Z " fill="#EBECEC" transform="translate(165.50390625,44.76171875)"/>
<path d="M0 0 C3.77277585 3.12671084 6.27273991 6.96015484 9 11 C10.54892011 13.05198818 12.11192573 15.09340586 13.6875 17.125 C14.09371582 17.65762451 14.49993164 18.19024902 14.91845703 18.73901367 C18.49861254 23.42133295 22.23669398 27.9642925 26 32.5 C31.84099068 39.54370985 37.48070586 46.70159273 43 54 C43.64195312 54.82757813 44.28390625 55.65515625 44.9453125 56.5078125 C45.49960938 57.22710937 46.05390625 57.94640625 46.625 58.6875 C47.09164062 59.28949219 47.55828125 59.89148438 48.0390625 60.51171875 C49 62 49 62 49 64 C49.66 64 50.32 64 51 64 C51 42.88 51 21.76 51 0 C64.66930593 0 72.75578883 0.46647263 83 9 C88.70099571 15.28357921 90.29913658 21.30877209 90.32226562 29.73071289 C90.33716034 31.0342572 90.33716034 31.0342572 90.35235596 32.36413574 C90.38151547 35.23367515 90.39519193 38.10299312 90.40625 40.97265625 C90.41776371 42.97700501 90.42927904 44.98135377 90.4407959 46.98570251 C90.46179478 51.1896161 90.47349257 55.39345348 90.48046875 59.59741211 C90.49140725 64.95829078 90.53940196 70.31814552 90.59641266 75.67870426 C90.63385615 79.82169938 90.64408681 83.96445312 90.6471405 88.10760307 C90.65315632 90.08220426 90.66908651 92.05680311 90.69551086 94.03123665 C90.85644593 106.98570652 90.47130454 117.57673873 80.9375 127.4375 C75.89075928 131.20022483 69.98906205 133.24692927 64 135 C63.11699219 135.26425781 62.23398438 135.52851563 61.32421875 135.80078125 C58.31894895 136.27529753 56.81473511 136.20375794 54 135 C50.27836928 131.32183358 47.35155746 127.2611167 44.38232422 122.96679688 C42.24581607 119.92693294 39.9378289 117.03152755 37.625 114.125 C37.17866211 113.55668457 36.73232422 112.98836914 36.27246094 112.40283203 C31.59140592 106.44286368 26.79923352 100.57369479 22.01171875 94.69921875 C15.90684801 87.20765663 9.93374302 79.62909816 4 72 C3.67 92.79 3.34 113.58 3 135 C-16.8625 135 -16.8625 135 -23 131 C-23.70511719 130.5875 -24.41023438 130.175 -25.13671875 129.75 C-30.91457854 125.99065315 -34.01834401 121.58902379 -36 115 C-36.96615063 107.9356133 -36.753536 100.74295106 -36.734375 93.62890625 C-36.7428359 91.53962204 -36.75247917 89.45034233 -36.76324463 87.36106873 C-36.77958745 82.99436803 -36.776971 78.62817484 -36.76171875 74.26147461 C-36.74443348 68.6885001 -36.78159915 63.11740928 -36.83398056 57.54470921 C-36.86718981 53.23354212 -36.86764111 48.9228226 -36.85883331 44.6115551 C-36.85919126 42.55800219 -36.87036269 40.50441954 -36.89293671 38.45099068 C-37.09429699 17.3355833 -37.09429699 17.3355833 -29 9 C-26.13692861 6.59312667 -23.3279307 4.70454987 -20 3 C-19.36320312 2.66226563 -18.72640625 2.32453125 -18.0703125 1.9765625 C-12.40478398 -0.58585496 -6.039657 -1.60790869 0 0 Z " fill="#424345" transform="translate(147,98)"/>
<path d="M0 0 C2.30609627 -0.00436393 4.61025638 -0.0408059 6.91601562 -0.07861328 C21.81129642 -0.1935685 35.21321762 2.98300305 49.00976562 8.55810547 C49.91791016 8.91324219 50.82605469 9.26837891 51.76171875 9.63427734 C58.01297773 12.09096152 58.01297773 12.09096152 60.57226562 13.37060547 C60.57226562 14.03060547 60.57226562 14.69060547 60.57226562 15.37060547 C61.45785156 15.64001953 62.3434375 15.90943359 63.25585938 16.18701172 C88.34457949 25.14093657 108.45814536 52.23626559 119.57226562 75.37060547 C130.9117502 100.63374287 133.27494112 126.49643917 128.38476562 153.68310547 C128.09098022 155.31807983 128.09098022 155.31807983 127.79125977 156.98608398 C123.02642735 180.81389867 108.98017421 201.95571333 92.57226562 219.37060547 C91.96125 220.04607422 91.35023438 220.72154297 90.72070312 221.41748047 C74.91366148 238.23348221 52.4981325 248.39082359 30.57226562 254.37060547 C29.85224365 254.57306885 29.13222168 254.77553223 28.39038086 254.98413086 C19.68231053 257.0871801 10.66374128 256.80947051 1.75976562 256.80810547 C0.89120941 256.80950531 0.0226532 256.81090515 -0.8722229 256.81234741 C-14.27480442 256.79456164 -26.70138814 255.91595955 -39.42773438 251.37060547 C-40.52214844 250.99806641 -41.6165625 250.62552734 -42.74414062 250.24169922 C-45.7372699 249.09785354 -48.55809348 247.79612099 -51.42773438 246.37060547 C-52.06630371 246.0613916 -52.70487305 245.75217773 -53.36279297 245.43359375 C-63.63431216 240.42512771 -72.70599931 234.74878343 -81.42773438 227.37060547 C-82.39453125 226.55591797 -83.36132812 225.74123047 -84.35742188 224.90185547 C-90.79613117 219.26575537 -96.25714152 213.17921056 -101.42773438 206.37060547 C-102.02070312 205.60490234 -102.61367187 204.83919922 -103.22460938 204.05029297 C-123.62544367 176.4436594 -131.36446433 141.6629659 -126.76757812 107.80810547 C-121.321318 74.95120511 -102.89701568 45.40773447 -76.42773438 25.37060547 C-75.68652344 24.79052734 -74.9453125 24.21044922 -74.18164062 23.61279297 C-63.19953677 15.42855613 -50.58683923 9.0190862 -37.55273438 4.87060547 C-36.82965088 4.63978271 -36.10656738 4.40895996 -35.36157227 4.17114258 C-23.73740544 0.72940845 -12.04081364 -0.00253598 0 0 Z M-32.51904297 11.72998047 C-34.22685975 12.30318477 -35.96127467 12.79567279 -37.69726562 13.27685547 C-67.70324061 21.95328197 -91.70415165 45.34489544 -106.66430664 72.00366211 C-121.53743459 99.68494525 -124.28017919 132.02370762 -115.67773438 162.05810547 C-109.09374805 181.66099305 -99.40911976 198.17564594 -85.42773438 213.37060547 C-84.75097656 214.12986328 -84.07421875 214.88912109 -83.37695312 215.67138672 C-63.2406626 237.18746588 -32.63538452 248.49427294 -3.71679688 249.62060547 C27.22328086 250.42996591 57.63666519 241.67601941 80.69726562 220.18310547 C82.67954083 218.26795429 84.62576866 216.32262442 86.57226562 214.37060547 C87.30574219 213.69642578 88.03921875 213.02224609 88.79492188 212.32763672 C109.58622879 192.94170641 121.72928553 162.9230006 122.99414062 134.92919922 C123.51319897 115.06175126 121.5296038 96.38290948 112.57226562 78.37060547 C112.29012207 77.79149414 112.00797852 77.21238281 111.71728516 76.61572266 C107.22405279 67.46751107 102.05238725 59.2808229 95.57226562 51.37060547 C94.88648438 50.51982422 94.20070313 49.66904297 93.49414062 48.79248047 C83.91966042 37.51587045 69.83217492 25.70246745 55.57226562 21.37060547 C55.57226562 20.71060547 55.57226562 20.05060547 55.57226562 19.37060547 C53.24373794 18.35820213 50.90987957 17.36168687 48.57226562 16.37060547 C47.41404297 15.8659375 47.41404297 15.8659375 46.23242188 15.35107422 C41.28250215 13.26319339 36.59928136 11.79135134 31.28710938 10.96044922 C28.57226562 10.37060547 28.57226562 10.37060547 26.83374023 9.66210938 C19.17369059 6.60319682 11.37288922 6.82337584 3.25976562 6.87060547 C2.50548279 6.87137085 1.75119995 6.87213623 0.97406006 6.8729248 C-10.68605402 6.91561205 -21.40063041 7.97076138 -32.51904297 11.72998047 Z " fill="#444547" transform="translate(172.427734375,37.62939453125)"/>
<path d="M0 0 C3.1392432 2.616036 5.51196264 5.77476638 8 9 C8.83072817 10.05181174 9.66281755 11.10254948 10.49609375 12.15234375 C12.34145038 14.4852877 14.17360997 16.82796766 16 19.17578125 C19.17603931 23.24402575 22.42630182 27.24989239 25.6875 31.25 C26.5232959 32.27613403 26.5232959 32.27613403 27.37597656 33.32299805 C28.44521201 34.63566128 29.51454337 35.94824641 30.58398438 37.26074219 C35.48260211 43.27759611 40.2853317 49.36255921 45.03442383 55.49780273 C50.45006538 62.49237785 55.93423945 69.38451569 61.640625 76.14453125 C64.60410385 79.73112569 67.4273476 83.41283207 70.22680664 87.12817383 C72.36097046 89.94167854 74.54841653 92.66518829 76.88671875 95.3125 C77.35529297 95.84810547 77.82386719 96.38371094 78.30664062 96.93554688 C79.6130158 98.41561267 80.93687651 99.88019135 82.26171875 101.34375 C84 104 84 104 83.85546875 106.6875 C81.83782588 112.14158483 78.7354792 114.34752702 73.625 116.8125 C69.58333603 118.66255745 66.42214165 119.91241657 62 119 C59.28794957 116.62574807 57.17280919 113.86457312 55 111 C54.46810059 110.32001953 53.93620117 109.64003906 53.38818359 108.93945312 C51.80050079 106.89127786 50.24179835 104.82359599 48.6875 102.75 C44.09149742 96.676758 39.37521746 90.76913842 34.45703125 84.953125 C31.7562747 81.70706466 29.15424974 78.39559692 26.5625 75.0625 C22.95595237 70.42796233 19.25926114 65.89610901 15.4375 61.4375 C10.50341251 55.67307782 5.87344062 49.71477095 1.28125 43.67675781 C-9.36971907 27.51211935 -9.36971907 27.51211935 -23 15 C-22.07932645 9.7906193 -18.82678352 6.47286134 -15 3 C-10.42304342 0.28607076 -5.21630582 -1.11777982 0 0 Z " fill="#EAEBEB" transform="translate(143,106)"/>
<path d="M0 0 C1.4224186 0.13365895 2.84417583 0.27436638 4.265625 0.41796875 C5.05743164 0.4955542 5.84923828 0.57313965 6.66503906 0.65307617 C12.28200508 1.48763375 16.96642259 4.0784664 21 8 C23.9048956 12.71686614 24.41999721 16.6983821 24.34057617 22.11669922 C24.34123329 23.30307228 24.34123329 23.30307228 24.34190369 24.51341248 C24.33982448 27.11076097 24.31653503 29.70745268 24.29296875 32.3046875 C24.2873697 34.11214851 24.28310106 35.9196141 24.28010559 37.7270813 C24.26868118 42.47168671 24.23923477 47.21601422 24.20599365 51.96051025 C24.17524085 56.8069686 24.16158913 61.65347209 24.14648438 66.5 C24.1143627 76.00012173 24.06319551 85.5000377 24 95 C21.16357205 92.18160038 18.39573509 89.40174425 15.87890625 86.29296875 C15.33556641 85.62330078 14.79222656 84.95363281 14.23242188 84.26367188 C13.68134766 83.57853516 13.13027344 82.89339844 12.5625 82.1875 C12.01529297 81.51396484 11.46808594 80.84042969 10.90429688 80.14648438 C9.25545334 78.10738202 7.6145632 76.06645645 6 74 C5.49889709 73.50404327 4.99779419 73.00808655 4.48150635 72.49710083 C-1.39710929 66.06828334 -0.77070469 58.9815433 -0.5859375 50.78125 C-0.57472912 49.31296533 -0.5661967 47.84465802 -0.56021118 46.37634277 C-0.53744081 42.53544776 -0.47862463 38.69594177 -0.4119873 34.85559082 C-0.35030646 30.9273558 -0.32314158 26.99889351 -0.29296875 23.0703125 C-0.2288654 15.37957912 -0.12663493 7.68998511 0 0 Z " fill="#E8E9E9" transform="translate(205,106)"/>
<path d="M0 0 C5.5133742 5.49164682 5.5133742 5.49164682 7.6484375 8.015625 C8.09703125 8.54542969 8.545625 9.07523438 9.0078125 9.62109375 C9.68457031 10.42740234 9.68457031 10.42740234 10.375 11.25 C11.04015625 12.03310547 11.04015625 12.03310547 11.71875 12.83203125 C12.62635267 13.9081887 13.52067609 14.99569446 14.4009552 16.09431458 C15.97348122 18.03013366 15.97348122 18.03013366 17.79179382 19.76127625 C24.27103135 26.68999633 23.91232302 33.81378052 23.68359375 42.75390625 C23.67051448 44.26559644 23.66056132 45.77731659 23.65357971 47.28904724 C23.62703559 51.24028535 23.55843883 55.18968064 23.48065186 59.14019775 C23.40864238 63.18240436 23.37698846 67.22491301 23.34179688 71.26757812 C23.26704785 79.17922484 23.14780787 87.08938227 23 95 C15.71665551 95.10511085 11.15767859 94.18504173 5 90 C0.29302567 85.05829467 -0.14492853 79.745306 -0.11352539 73.22387695 C-0.11367142 72.43339966 -0.11381744 71.64292236 -0.1139679 70.82849121 C-0.11327109 68.21506 -0.10548955 65.60170001 -0.09765625 62.98828125 C-0.09579124 61.17652933 -0.09436773 59.3647769 -0.09336853 57.55302429 C-0.08954985 52.78382984 -0.07972508 48.01466582 -0.06866455 43.2454834 C-0.05843649 38.37915458 -0.05386792 33.51282084 -0.04882812 28.64648438 C-0.03810226 19.09764287 -0.0210336 9.54882397 0 0 Z " fill="#EBECEC" transform="translate(119,130)"/>
<path d="M0 0 C0.66 0.33 1.32 0.66 2 1 C-4.6 7.6 -11.2 14.2 -18 21 C-18.66 20.67 -19.32 20.34 -20 20 C-7.23404255 5.85106383 -7.23404255 5.85106383 0 0 Z " fill="#535558" transform="translate(93,65)"/>
</svg>
